Coordinates
version=1
nRows=9
nColumns=36
inDegrees=yes

Units are S.I. units (second, meters, Newtons, ...)
If the header above contains a line with 'inDegrees', this indicates whether rotational values are in degrees (yes) or radians (no).

endheader
time	pelvis_tilt	pelvis_list	pelvis_rotation	pelvis_tx	pelvis_ty	pelvis_tz	hip_flexion_r	hip_adduction_r	hip_rotation_r	knee_angle_r	knee_angle_r_beta	ankle_angle_r	subtalar_angle_r	mtp_angle_r	hip_flexion_l	hip_adduction_l	hip_rotation_l	knee_angle_l	knee_angle_l_beta	ankle_angle_l	subtalar_angle_l	mtp_angle_l	lumbar_extension	lumbar_bending	lumbar_rotation	arm_flex_r	arm_add_r	arm_rot_r	elbow_flex_r	pro_sup_r	arm_flex_l	arm_add_l	arm_rot_l	elbow_flex_l	pro_sup_l
      2.95833330	    -23.35510659	      0.16649412	     -3.03608596	      0.24622002	      0.75073952	     -0.06473254	     68.27695648	     -2.40833350	      4.13248340	     73.88795684	      1.28958812	     25.08065824	     -6.73301607	     -7.49999987	     67.09778810	     -5.12620900	      5.92256742	     73.82288280	      1.28845237	     24.78613735	     -8.89282643	     -7.49999987	    -31.36751708	      0.19128169	      0.04364794	     59.39878790	     -6.92872570	     24.15246648	    129.47221984	    110.31326707	     70.41020956	    -12.32131595	    392.54786479	    121.11915276	    100.00418507
      2.96250000	    -23.25173327	      0.19410393	     -3.11828783	      0.24621096	      0.75469523	     -0.06363500	     67.80035542	     -2.31385617	      4.19555653	     73.23599107	      1.27820918	     24.81738609	     -6.39074870	     -7.49999987	     66.59102396	     -5.24351525	      5.80094506	     73.19765260	      1.27754004	     24.52406272	     -9.03615300	     -7.49999987	    -31.41274751	     -0.00353764	      0.12196073	     58.76635181	     -7.16224535	     23.01983453	    128.62624475	    110.61510048	     69.71197496	    -12.42966988	    391.89928996	    120.24001469	     99.80490371
      2.96666670	    -23.09396723	      0.18979966	     -3.08673076	      0.24657214	      0.75556215	     -0.06273124	     67.38914588	     -2.27210821	      4.20376301	     72.83421943	      1.27119694	     24.73033542	     -6.03480456	     -7.49999987	     66.18574016	     -5.38749862	      5.77160508	     72.75216791	      1.26976487	     24.33123320	     -9.07567921	     -7.49999987	    -31.34138937	     -0.09809768	      0.15420542	     58.06313638	     -7.29914580	     22.18659378	    127.87804723	    110.11872145	     69.11351395	    -12.28388670	    391.23599827	    119.10193175	    100.25636056
      2.97083330	    -22.87543168	      0.12740064	     -3.08551861	      0.24967324	      0.75842469	     -0.06152639	     66.65283796	     -2.13467393	      4.17353355	     72.26161084	      1.26120303	     24.71227594	     -6.05798554	     -7.49999987	     65.53379847	     -5.56533722	      5.76800231	     72.19497667	      1.26004005	     24.25067540	     -8.94302453	     -7.49999987	    -31.23126568	     -0.09294394	      0.11977158	     57.53063522	     -7.18853088	     21.69633160	    126.52688365	    109.80026888	     68.04313528	    -12.51742300	    390.34204346	    118.35543773	    100.05348501
      2.97500000	    -22.55529625	      0.09482687	     -3.13706111	      0.25221900	      0.76162159	     -0.06282079	     65.79769431	     -2.07274571	      4.14917355	     71.65561117	      1.25062634	     24.65794920	     -6.26669330	     -7.49999987	     64.69606591	     -5.70557843	      5.63947944	     71.62814668	      1.25014700	     24.28991475	     -8.75791440	     -7.49999987	    -31.17382964	     -0.13947061	      0.16871703	     56.79279462	     -7.16677839	     21.22033644	    125.57673955	    109.87154316	     66.98764562	    -12.46009385	    389.65251605	    117.29052650	     99.30621852
      2.97916670	    -22.18590447	      0.09088554	     -3.23136302	      0.25216539	      0.76670084	     -0.06291452	     64.90654651	     -2.03603276	      4.11651619	     70.91190292	      1.23764618	     24.36227624	     -6.57320042	     -7.49999987	     63.70811501	     -5.79433965	      5.44378535	     70.84927805	      1.23655317	     24.10883936	     -8.86408756	     -7.49999987	    -31.30295306	     -0.20845545	      0.16676351	     56.29069342	     -7.00318458	     20.83267620	    124.57579426	    109.48029687	     66.05164487	    -12.53038459	    388.78241125	    116.25338429	     98.96982305
      2.98333330	    -21.84896406	      0.02548367	     -3.19435912	      0.25417198	      0.76846862	     -0.06067585	     64.12988993	     -1.95005302	      4.01178204	     70.43677953	      1.22935372	     24.29266904	     -6.75289011	     -7.49999987	     62.88813278	     -5.92934325	      5.37608449	     70.27253648	      1.22648714	     24.03589278	     -8.60198290	     -7.49999987	    -31.30886511	     -0.24599139	      0.12780198	     55.63293332	     -6.98092642	     20.23607424	    123.48117862	    109.46670294	     65.05932443	    -12.49303393	    387.99177622	    115.06703093	     98.06817457
      2.98750000	    -21.52652242	     -0.02829442	     -3.14989161	      0.25301925	      0.77113458	     -0.06125823	     63.55073348	     -1.92801939	      3.96144594	     70.07766770	      1.22308603	     24.01937298	     -6.97424133	     -7.49999987	     62.31866610	     -6.04998822	      5.29512217	     69.90011234	      1.21998711	     23.81355579	     -8.42013391	     -7.49999987	    -31.39798981	     -0.30738534	      0.02893315	     55.15067088	     -7.08283088	     19.46564840	    122.24641529	    109.15224411	     64.25963730	    -12.63247371	    387.23918602	    113.98708648	     97.19117268
      2.99166670	    -21.26033508	     -0.02010371	     -3.15371575	      0.24965400	      0.77404106	     -0.06379156	     63.20868138	     -2.05539213	      3.98369508	     69.63785235	      1.21540981	     23.44321110	     -6.97528481	     -7.49999987	     61.99521712	     -6.00206959	      5.11657566	     69.50580093	      1.21310508	     23.55884141	     -8.26759756	     -7.49999987	    -31.50990219	     -0.31042628	     -0.01596492	     54.88006527	     -7.19923147	     18.53079664	    120.82522925	    108.59620637	     63.78749846	    -12.73283809	    386.53591816	    112.86187552	     96.41094370
